HIERARCHY
ROOT Hips
{
	OFFSET 0.000000 0.000000 0.000000
	CHANNELS 6 Xposition Yposition Zposition Xrotation Yrotation Zrotation
	JOINT LeftUpLeg_virtual
	{
		OFFSET 0.000000 0.000000 0.000000
		CHANNELS 3 Xrotation Yrotation Zrotation
		JOINT LeftUpLeg
		{
			OFFSET 15.427100 -6.655098 0.678600
			CHANNELS 3 Xrotation Yrotation Zrotation
			JOINT LeftLeg
			{
				OFFSET 4.081073 -39.591068 13.024000
				CHANNELS 3 Xrotation Yrotation Zrotation
				JOINT LeftFoot
				{
					OFFSET -4.081074 -37.707932 -15.979700
					CHANNELS 3 Xrotation Yrotation Zrotation
					JOINT LeftToeBase
					{
						OFFSET 5.346399 -15.068900 20.645000
						CHANNELS 3 Xrotation Yrotation Zrotation
						JOINT LeftToe_End
						{
							OFFSET 2.754700 0.931300 11.300900
							CHANNELS 3 Xrotation Yrotation Zrotation
							End Site
							{
								OFFSET 0 0 0
							}
						}
					}
				}
			}
		}
	}
	JOINT RightUpLeg_virtual
	{
		OFFSET 0.000000 0.000000 0.000000
		CHANNELS 3 Xrotation Yrotation Zrotation
		JOINT RightUpLeg
		{
			OFFSET -15.569500 -6.655098 0.678600
			CHANNELS 3 Xrotation Yrotation Zrotation
			JOINT RightLeg
			{
				OFFSET -4.081825 -39.591045 13.023800
				CHANNELS 3 Xrotation Yrotation Zrotation
				JOINT RightFoot
				{
					OFFSET 4.081824 -37.707954 -15.979600
					CHANNELS 3 Xrotation Yrotation Zrotation
					JOINT RightToeBase
					{
						OFFSET -5.346400 -15.068900 20.645000
						CHANNELS 3 Xrotation Yrotation Zrotation
						JOINT RightToe_End
						{
							OFFSET -2.754700 0.931300 11.300900
							CHANNELS 3 Xrotation Yrotation Zrotation
							End Site
							{
								OFFSET 0 0 0
							}
						}
					}
				}
			}
		}
	}
	JOINT Spine_virtual
	{
		OFFSET 0.000000 0.000000 0.000000
		CHANNELS 3 Xrotation Yrotation Zrotation
		JOINT Spine
		{
			OFFSET -0.279200 12.230698 -2.892100
			CHANNELS 3 Xrotation Yrotation Zrotation
			JOINT Spine1
			{
				OFFSET -0.232667 10.192268 -1.242267
				CHANNELS 3 Xrotation Yrotation Zrotation
				JOINT Spine1_split
				{
					OFFSET -0.232667 10.192268 -1.242267
					CHANNELS 3 Xrotation Yrotation Zrotation
					JOINT Spine2
					{
						OFFSET -0.232667 10.192268 -1.242267
						CHANNELS 3 Xrotation Yrotation Zrotation
						JOINT Neck_virtual
						{
							OFFSET 0.000000 0.000000 0.000000
							CHANNELS 3 Xrotation Yrotation Zrotation
							JOINT Neck
							{
								OFFSET -0.418800 17.814194 8.416900
								CHANNELS 3 Xrotation Yrotation Zrotation
								JOINT Head
								{
									OFFSET 0.000000 7.031097 3.806800
									CHANNELS 3 Xrotation Yrotation Zrotation
									JOINT HeadTop_End
									{
										OFFSET 0.000000 24.646606 12.978600
										CHANNELS 3 Xrotation Yrotation Zrotation
										End Site
										{
											OFFSET 0 0 0
										}
									}
								}
							}
						}
						JOINT LeftShoulder_virtual
						{
							OFFSET 0.000000 0.000000 0.000000
							CHANNELS 3 Xrotation Yrotation Zrotation
							JOINT LeftShoulder
							{
								OFFSET 8.476499 7.247704 -3.868750
								CHANNELS 3 Xrotation Yrotation Zrotation
								JOINT LeftShoulder_split
								{
									OFFSET 8.476499 7.247704 -3.868750
									CHANNELS 3 Xrotation Yrotation Zrotation
									JOINT LeftArm
									{
										OFFSET 9.308998 -2.777710 0.208600
										CHANNELS 3 Xrotation Yrotation Zrotation
										JOINT LeftForeArm
										{
											OFFSET 29.972298 0.000000 0.000000
											CHANNELS 3 Xrotation Yrotation Zrotation
											JOINT LeftHand
											{
												OFFSET 26.026505 0.000000 0.000000
												CHANNELS 3 Xrotation Yrotation Zrotation
												End Site
												{
													OFFSET 0 0 0
												}
											}
										}
									}
								}
							}
						}
						JOINT RightShoulder_virtual
						{
							OFFSET 0.000000 0.000000 0.000000
							CHANNELS 3 Xrotation Yrotation Zrotation
							JOINT RightShoulder
							{
								OFFSET -7.570500 7.247704 -3.868750
								CHANNELS 3 Xrotation Yrotation Zrotation
								JOINT RightShoulder_split
								{
									OFFSET -7.570500 7.247704 -3.868750
									CHANNELS 3 Xrotation Yrotation Zrotation
									JOINT RightArm
									{
										OFFSET -9.308998 -2.777710 0.208500
										CHANNELS 3 Xrotation Yrotation Zrotation
										JOINT RightForeArm
										{
											OFFSET -29.972300 0.000000 0.000000
											CHANNELS 3 Xrotation Yrotation Zrotation
											JOINT RightHand
											{
												OFFSET -26.026505 0.000000 0.000000
												CHANNELS 3 Xrotation Yrotation Zrotation
												End Site
												{
													OFFSET 0 0 0
												}
											}
										}
									}
								}
							}
						}
					}
				}
			}
		}
	}
}
MOTION
Frames: 11
Frame Time: 0.03333333
12.427168 76.487625 1.727425 0.000000 0.000000 0.000000 9.057477 -2.055141 -9.954406 -51.137432 -9.589385 30.637114 47.792261 -4.407269 -5.815397 -0.553753 3.060929 -14.384054 -1.189027 -0.172870 0.645786 0.000000 0.000000 0.000000 9.725718 -1.428090 -10.615921 -32.224423 -22.999636 2.227943 46.340139 7.777378 0.926129 -21.756646 -16.231755 -8.530078 1.654890 0.116626 -0.685362 0.000000 0.000000 0.000000 8.083663 -0.012328 -11.037025 7.798387 -3.455160 -7.548244 5.417974 -1.736604 -6.244631 1.280577 0.921504 0.548460 0.000000 0.000000 0.000000 7.803762 -1.778724 -6.341052 -6.919729 0.529262 -6.869459 -29.432211 -12.758698 13.076411 0.000000 0.000000 0.000000 6.734209 -1.513190 -6.057349 0.894922 -5.386620 -7.819172 -0.707138 -4.090301 0.531941 -27.119975 7.930438 -19.359061 2.607670 -59.277463 2.399837 0.000000 0.000000 0.000000 6.489707 -1.869565 -6.054229 1.855698 -1.832297 4.258453 6.327288 3.854789 -3.029291 24.853824 -8.702764 81.201551 8.583500 80.260959 -7.634525 0.000000 0.000000 0.000000 
12.637568 75.342545 0.848721 0.000000 0.000000 0.000000 8.566422 -3.486309 -9.235816 -51.645417 -9.995889 30.492355 49.398421 -3.665691 -6.006835 -0.832802 3.537389 -14.612234 -0.752734 -0.105590 0.725645 0.000000 0.000000 0.000000 9.125391 -2.611470 -9.900545 -34.203064 -21.302481 2.371922 48.340722 6.827437 0.746472 -22.007173 -16.873383 -8.902457 1.546050 0.132670 -0.647733 0.000000 0.000000 0.000000 7.631135 -1.304127 -10.479320 8.670519 -3.093182 -7.066442 5.980417 -1.478169 -5.950263 1.349058 0.913814 0.619457 0.000000 0.000000 0.000000 8.089568 -1.552750 -6.067078 -5.956721 0.397310 -6.691667 -28.357274 -12.208913 12.764051 0.000000 0.000000 0.000000 7.145996 -1.348621 -5.942648 0.937563 -5.629476 -8.743215 -0.555862 -4.108641 0.705703 -24.243867 12.234241 -22.856480 2.143266 -56.898064 2.063781 0.000000 0.000000 0.000000 7.062368 -1.602666 -5.760064 1.844382 -0.685312 5.067905 5.955826 3.510512 -3.025333 21.855712 -5.638341 79.616599 6.139225 76.307597 -5.310289 0.000000 0.000000 0.000000 
12.674747 74.613281 0.114609 0.000000 0.000000 0.000000 8.148728 -4.646877 -8.638254 -51.797262 -10.239558 30.361393 50.323430 -2.777940 -6.220228 -1.088991 3.978182 -14.755367 -0.470893 -0.032185 0.648144 0.000000 0.000000 0.000000 8.491949 -3.705442 -9.270496 -35.780974 -19.838641 2.528507 49.752136 5.909533 0.695607 -21.990373 -17.310739 -9.085094 1.857170 0.165110 -0.614498 0.000000 0.000000 0.000000 7.187709 -2.659418 -9.971371 9.363468 -2.815655 -6.704974 6.391983 -1.268080 -5.696426 1.400081 0.972771 0.521046 0.000000 0.000000 0.000000 8.229502 -1.373096 -5.809163 -5.170794 0.382735 -6.560219 -26.759624 -11.552491 12.609382 0.000000 0.000000 0.000000 7.390425 -1.206873 -5.850008 0.975185 -5.810550 -9.605432 -0.636089 -3.797705 0.911894 -21.331591 15.263354 -26.802557 1.579065 -53.528469 1.640012 0.000000 0.000000 0.000000 7.510765 -1.373404 -5.518182 1.771092 0.362488 5.873687 5.562903 3.306962 -2.928293 18.832688 -2.774351 77.815259 4.792996 72.611079 -4.108565 0.000000 0.000000 0.000000 
12.563900 74.314888 -0.465572 0.000000 0.000000 0.000000 7.706088 -5.549982 -8.179099 -51.625790 -10.417735 30.316150 50.708369 -1.924246 -6.417645 -1.081245 4.240027 -14.930423 -0.332936 0.040967 0.427552 0.000000 0.000000 0.000000 7.927851 -4.681882 -8.778009 -36.842020 -18.597978 2.801130 50.442825 5.131220 0.670537 -21.499803 -17.515190 -8.870519 2.097726 0.213284 -0.620782 0.000000 0.000000 0.000000 6.729054 -4.061678 -9.511169 9.793066 -2.603847 -6.468380 6.598741 -1.113925 -5.498126 1.353555 1.141612 0.324187 0.000000 0.000000 0.000000 8.166453 -1.231876 -5.601248 -4.532747 0.418434 -6.461423 -24.655540 -10.917988 12.651206 0.000000 0.000000 0.000000 7.430927 -1.092398 -5.784477 1.003458 -5.854663 -10.391231 -0.833701 -3.398909 1.055196 -18.530718 16.925649 -30.809624 1.076902 -49.695268 1.257494 0.000000 0.000000 0.000000 7.763394 -1.177971 -5.354279 1.648781 1.250850 6.697694 5.349437 3.305278 -2.756084 15.836215 -0.144455 76.026986 3.941379 69.221672 -3.397654 0.000000 0.000000 0.000000 
12.346907 74.440948 -0.917061 0.000000 0.000000 0.000000 7.158103 -6.317573 -7.878346 -50.989022 -10.557346 30.377570 50.664079 -1.185177 -6.577996 -0.781078 4.322043 -14.957052 -0.244607 0.095892 0.152769 0.000000 0.000000 0.000000 7.408950 -5.622196 -8.401966 -37.245602 -17.489364 3.309047 50.223873 4.511650 0.605387 -20.521746 -17.522604 -8.397071 2.053412 0.253986 -0.662177 0.000000 0.000000 0.000000 6.237014 -5.530188 -9.115610 9.892079 -2.420359 -6.333332 6.591302 -1.015444 -5.361146 1.314655 1.470285 0.134130 0.000000 0.000000 0.000000 7.874779 -1.121657 -5.457439 -3.941015 0.441541 -6.349788 -21.956712 -10.386323 12.893281 0.000000 0.000000 0.000000 7.282659 -1.005657 -5.742999 1.023296 -5.752084 -11.134499 -1.290553 -2.994507 1.003360 -15.975538 17.315662 -34.491543 0.776526 -46.036469 1.011394 0.000000 0.000000 0.000000 7.764845 -1.017629 -5.277479 1.518379 1.947409 7.522870 5.288130 3.422464 -2.620525 12.987402 2.319334 74.401968 3.358689 66.241476 -2.912858 0.000000 0.000000 0.000000 
12.005834 74.977844 -1.182587 0.000000 0.000000 0.000000 6.459011 -6.924886 -7.706676 -49.669576 -10.535853 30.562515 50.068951 -0.484069 -6.710742 -0.443069 4.381165 -14.657552 -0.064531 0.139134 -0.102034 0.000000 0.000000 0.000000 6.836989 -6.477944 -8.139407 -36.954274 -16.488085 4.043489 49.088115 3.975600 0.488035 -19.197710 -17.384488 -7.888302 1.883153 0.259877 -0.714648 0.000000 0.000000 0.000000 5.601202 -6.992484 -8.784087 9.663409 -2.256301 -6.255473 6.374723 -0.982010 -5.283357 1.207071 1.804472 0.017220 0.000000 0.000000 0.000000 7.372234 -1.052126 -5.379135 -3.306193 0.417049 -6.178978 -18.574476 -9.956809 13.337871 0.000000 0.000000 0.000000 6.960347 -0.968941 -5.717838 1.032868 -5.520010 -11.829510 -1.912253 -2.686396 0.742790 -13.907967 16.602236 -37.551192 0.747161 -43.009592 0.940383 0.000000 0.000000 0.000000 7.512004 -0.908818 -5.281124 1.398121 2.411728 8.326614 5.278523 3.464023 -2.498037 10.496928 4.574370 72.916907 2.927553 63.988696 -2.539066 0.000000 0.000000 0.000000 
11.618056 75.854744 -1.413990 0.000000 0.000000 0.000000 5.589585 -7.554690 -7.631700 -47.612952 -10.207073 30.880105 48.872520 0.237435 -6.803566 -0.282610 4.431662 -14.021058 0.047151 0.164089 -0.234407 0.000000 0.000000 0.000000 6.109578 -7.268665 -7.989884 -36.016008 -15.596576 4.983755 47.232513 3.368632 0.332717 -17.581720 -17.186173 -7.473522 1.582085 0.221673 -0.762661 0.000000 0.000000 0.000000 4.743240 -8.345040 -8.529717 9.149941 -2.098793 -6.183870 6.000199 -1.019533 -5.246855 1.093338 2.109697 0.010772 0.000000 0.000000 0.000000 6.699249 -1.026480 -5.352489 -2.563644 0.340376 -5.924622 -14.539012 -9.608492 13.960668 0.000000 0.000000 0.000000 6.480834 -0.989958 -5.700297 1.021015 -5.273094 -12.445090 -2.607468 -2.519377 0.284937 -12.679123 14.908561 -39.758377 0.965409 -40.709406 1.010054 0.000000 0.000000 0.000000 7.053537 -0.870578 -5.333622 1.300834 2.651379 9.113260 5.251507 3.412125 -2.436800 8.553778 6.627534 71.510243 2.605949 62.659554 -2.254021 0.000000 0.000000 0.000000 
11.207995 76.989166 -1.625786 0.000000 0.000000 0.000000 4.592696 -8.276829 -7.622482 -44.931665 -9.521542 31.249717 47.268143 0.943938 -6.806979 -0.405520 4.491147 -13.045174 -0.151790 0.169615 -0.192444 0.000000 0.000000 0.000000 5.152147 -7.975731 -7.924191 -34.506105 -14.824623 6.052812 44.936685 2.657173 0.177368 -15.702499 -16.981802 -7.114040 1.211686 0.138257 -0.829489 0.000000 0.000000 0.000000 3.640762 -9.529060 -8.372608 8.451278 -1.956602 -6.072688 5.528344 -1.127804 -5.232826 1.056162 2.401009 -0.019195 0.000000 0.000000 0.000000 5.937532 -1.056112 -5.348957 -1.734857 0.206777 -5.551542 -9.996232 -9.331531 14.694915 0.000000 0.000000 0.000000 5.909144 -1.070336 -5.674417 0.997128 -5.113028 -12.946686 -3.275876 -2.354878 -0.322762 -12.494508 12.300663 -41.058692 1.300574 -38.802639 1.148003 0.000000 0.000000 0.000000 6.478927 -0.914707 -5.399877 1.228686 2.704322 9.846289 5.028876 3.342431 -2.419233 7.342946 8.483334 70.028345 2.379359 62.349409 -2.028200 0.000000 0.000000 0.000000 
10.783779 78.232010 -1.880386 0.000000 0.000000 0.000000 3.492766 -9.108258 -7.622106 -42.013610 -8.502584 31.564770 45.673485 1.535617 -6.688964 -0.797122 4.536526 -11.811577 -0.512979 0.150033 -0.086974 0.000000 0.000000 0.000000 3.975448 -8.567886 -7.938219 -32.577602 -14.224547 7.144999 42.495712 1.860748 0.013244 -13.677214 -16.701850 -6.699716 0.847089 0.038713 -0.912424 0.000000 0.000000 0.000000 2.275956 -10.474017 -8.321321 7.674795 -1.829314 -5.885023 5.030642 -1.285448 -5.212764 1.015289 2.576861 0.001184 0.000000 0.000000 0.000000 5.152628 -1.128309 -5.342439 -0.918775 0.034200 -5.052001 -5.320457 -9.039775 15.411705 0.000000 0.000000 0.000000 5.305108 -1.187282 -5.617024 0.950676 -5.158151 -13.235855 -3.556083 -2.206297 -0.808268 -13.371434 8.781432 -41.532505 1.602889 -36.766529 1.270215 0.000000 0.000000 0.000000 5.883533 -1.016676 -5.446597 1.169462 2.649669 10.528087 4.671438 3.405631 -2.310777 6.805507 10.108052 68.293456 2.201280 62.676124 -1.828854 0.000000 0.000000 0.000000 
10.423044 79.441452 -2.264992 0.000000 0.000000 0.000000 2.301244 -10.102501 -7.628877 -39.253186 -7.251184 31.720870 44.587400 1.959255 -6.437211 -1.408478 4.624124 -10.351511 -0.848063 0.113407 -0.048756 0.000000 0.000000 0.000000 2.632994 -9.128065 -7.994480 -30.381901 -13.725935 8.203551 40.051628 1.000614 -0.166560 -11.799776 -16.251839 -6.379978 0.530694 -0.042119 -0.987640 0.000000 0.000000 0.000000 0.718024 -11.268368 -8.376960 6.920376 -1.706827 -5.584252 4.568715 -1.449339 -5.157364 1.146153 2.724035 -0.072478 0.000000 0.000000 0.000000 4.416497 -1.217286 -5.296495 -0.215556 -0.155868 -4.438425 -0.949430 -8.708059 15.947008 0.000000 0.000000 0.000000 4.734825 -1.304200 -5.507748 0.890169 -5.504087 -13.260819 -3.503753 -2.099893 -1.045689 -15.184807 4.373515 -41.366351 1.751155 -34.309311 1.310132 0.000000 0.000000 0.000000 5.345869 -1.145050 -5.442180 1.112959 2.623065 11.128618 4.107698 3.550033 -2.183490 6.745008 11.520898 66.101157 2.051005 63.196694 -1.629318 0.000000 0.000000 0.000000 
10.133596 80.469727 -2.649361 0.000000 0.000000 0.000000 0.966605 -11.293528 -7.607318 -36.774954 -5.852457 31.550461 44.318123 2.279750 -6.060197 -2.431767 5.055032 -8.606862 -0.885802 0.071164 -0.198537 0.000000 0.000000 0.000000 1.220482 -9.687364 -8.039583 -28.090773 -13.274629 9.114798 37.908130 0.074807 -0.358036 -10.349060 -15.572997 -6.438044 0.503482 -0.076818 -1.010585 0.000000 0.000000 0.000000 -0.950726 -12.013414 -8.491644 6.263502 -1.580997 -5.166762 4.179621 -1.571071 -5.052324 1.317561 2.900981 -0.212975 0.000000 0.000000 0.000000 3.801822 -1.293750 -5.193333 0.333071 -0.327254 -3.774780 2.697686 -8.229657 16.127639 0.000000 0.000000 0.000000 4.256944 -1.385656 -5.334285 0.826968 -6.061457 -13.024726 -3.207228 -1.991058 -1.062626 -17.571492 -0.729281 -40.800477 1.714404 -31.648860 1.288481 0.000000 0.000000 0.000000 4.897235 -1.255005 -5.386347 1.047671 2.752868 11.558445 3.518198 3.716136 -2.035779 6.729760 12.700297 63.348372 1.872759 63.533054 -1.420908 0.000000 0.000000 0.000000 
